<svg viewBox="0 0 50 50" fill="none" xmlns="http://www.w3.org/2000/svg">
  <polygon points="25,2 28,18 42,10 32,22 48,22 34,30 44,44 28,34 25,48 22,34 6,44 16,30 2,22 18,22 8,10 22,18" fill="#B45309"/>
  <polygon points="25,6 28,19 40,12 32,23 46,23 34,30 43,42 28,33 25,46 22,33 7,42 16,30 4,23 18,23 10,12 22,19" fill="#F97316"/>
  <polygon points="25,10 27,20 37,15 31,24 43,24 33,30 41,40 27,32 25,42 23,32 9,40 17,30 7,24 19,24 13,15 23,20" fill="#FDE047"/>
  <circle cx="25" cy="25" r="6" fill="white" opacity="0.6"/>
</svg>
